<svg width="12" height="15" viewBox="0 0 12 15" fill="none" xmlns="http://www.w3.org/2000/svg">
<path d="M11.7485 11.6896C11.5331 12.2136 11.278 12.696 10.9826 13.1395C10.5798 13.7441 10.25 14.1626 9.9959 14.395C9.60194 14.7765 9.17983 14.9719 8.72783 14.983C8.40334 14.983 8.01202 14.8858 7.5565 14.6885C7.09949 14.4922 6.6795 14.395 6.29547 14.395C5.89272 14.395 5.46077 14.4922 4.99874 14.6885C4.53601 14.8858 4.16324 14.9885 3.87824 14.9987C3.44479 15.0182 3.01275 14.8172 2.5815 14.395C2.30626 14.1423 1.96198 13.7089 1.54955 13.0951C1.10705 12.4395 0.743251 11.6794 0.458244 10.8127C0.153012 9.87665 0 8.97019 0 8.09263C0 7.08738 0.206302 6.22037 0.619522 5.49382C0.944277 4.91022 1.37632 4.44987 1.91705 4.11191C2.45778 3.77396 3.04203 3.60174 3.67123 3.59073C4.01551 3.59073 4.46698 3.70285 5.02802 3.92322C5.58748 4.14432 5.94671 4.25645 6.10421 4.25645C6.22196 4.25645 6.62102 4.12534 7.29752 3.86396C7.93727 3.62156 8.47721 3.52119 8.91954 3.56073C10.1181 3.66258 11.0186 4.16006 11.6175 5.05633C10.5455 5.7402 10.0152 6.69804 10.0258 7.9268C10.0355 8.8839 10.3652 9.68035 11.0133 10.3127C11.3071 10.6063 11.6351 10.8331 12 10.9942C11.9209 11.2359 11.8373 11.4673 11.7485 11.6896ZM8.99956 0.300085C8.99956 1.05026 8.73926 1.75069 8.22043 2.399C7.59431 3.16972 6.83699 3.61508 6.01574 3.5448C6.00528 3.4548 5.99921 3.36008 5.99921 3.26055C5.99921 2.54039 6.29697 1.76967 6.82574 1.1395C7.08973 0.82044 7.42547 0.555142 7.83263 0.34351C8.2389 0.135034 8.62319 0.0197431 8.98461 0C8.99516 0.100286 8.99956 0.200579 8.99956 0.300076V0.300085Z" fill="white"/>
</svg>
