<svg width="47" height="61" viewBox="0 0 47 61" fill="none" xmlns="http://www.w3.org/2000/svg">
<path d="M45.0165 48.194C43.625 47.0656 44.1665 44.5735 42.7218 43.344C44.1209 34.8305 40.1994 27.3265 35.524 22.517C31.6 18.4816 32.865 14.5551 32.865 11.1573C32.865 5.72792 30.636 0 23.8835 0C16.6654 0 14.6869 6.0214 14.6161 9.45714C14.444 17.71 16.2833 19.8554 11.4536 25.8617C5.77119 32.9279 4.93376 39.9765 6.21647 43.7159C5.61686 44.4141 4.80726 45.1883 3.29432 45.8284C-0.885238 47.65 2.17859 50.6987 1.02238 52.8618C0.693481 53.4766 0.536621 54.1192 0.536621 54.734C0.536621 56.6315 2.0445 58.2735 4.78449 58.0281C8.48082 57.6992 11.8913 60.3177 14.0974 60.3177C16.0455 60.3177 17.6445 59.2096 18.3883 57.684C21.8721 56.8263 26.1731 56.9351 29.6544 57.8333C30.2793 59.5815 31.9744 60.72 33.8592 60.72C37.9857 60.72 38.7801 56.042 43.5137 54.4582C45.2189 53.889 46.0766 52.2344 46.0766 50.6936C46.0766 49.7069 45.7249 48.7683 45.0165 48.194ZM21.8746 21.7175C21.0676 21.7175 20.3997 21.0648 19.3446 20.2805C18.0088 19.2887 16.6502 18.7169 16.6654 17.6746C16.6654 16.9586 17.6242 16.7385 18.8639 15.9516C20.1947 15.1092 20.7134 14.254 22.0239 14.254C23.3648 14.254 23.7696 14.9321 25.5912 15.7189C27.3825 16.4956 28.6297 16.7992 28.6297 17.6746C28.6297 18.5727 26.755 19.2153 25.7 19.8706C24.1491 20.827 23.3522 21.7175 21.8746 21.7175ZM26.0871 8.52357C28.3186 8.8803 28.569 12.8018 27.5014 14.7322L26.6032 14.3653C27.0687 12.9915 27.0611 10.7297 25.5027 10.5855C24.5134 10.4944 23.8759 11.7999 23.7393 12.9182C23.3522 12.7563 22.9296 12.6399 22.4161 12.5969C22.5729 10.2617 24.0808 8.20226 26.0871 8.52357ZM17.4775 9.361C19.1878 8.93596 20.1973 10.9245 20.2048 12.9916L19.4205 13.4722C19.3143 12.6045 18.9272 11.2028 17.9557 11.5014C16.9158 11.8252 17.0854 14.2414 17.6647 14.7372L16.8905 15.1673C15.8279 13.3786 15.8305 9.77086 17.4775 9.361ZM12.1266 58.0458C7.16016 55.7865 5.47265 56.3001 4.5239 56.3001C2.55809 56.3001 1.91547 54.8352 2.65423 53.4488C3.28167 52.2723 3.08686 51.0402 2.93253 50.051C2.69471 48.5355 2.6517 48.0422 4.14187 47.3894C6.20382 46.5141 7.11968 45.3882 7.80278 44.5457C9.72052 42.1751 11.656 45.9043 13.2423 49.2262C14.272 51.3792 16.2985 52.4697 16.9234 54.8555C17.4977 57.0591 15.1271 59.412 12.1266 58.0458ZM29.8037 53.3046C26.3021 55.0073 21.8418 55.789 18.5047 54.061C18.0113 52.6367 17.222 51.7157 16.3719 50.7898C17.7356 50.4305 18.7476 48.7303 17.5357 47.0226C16.2429 45.1985 13.6015 43.9259 10.9324 41.8614C8.43528 39.931 7.64592 35.1721 11.0462 29.854C9.38909 34.5649 10.3581 38.9063 11.1905 40.1486C11.3625 37.6489 11.5598 33.4744 14.9753 28.4726C16.6983 25.9477 16.7236 22.6131 16.7615 20.5284L18.3301 21.6011C19.4838 22.4538 20.4503 23.3924 21.8367 23.3924C23.886 23.3924 25.0194 22.2134 26.5982 21.2343C27.2155 20.8548 28.149 20.4702 28.9333 19.9364C30.2489 26.2007 35.6986 33.735 36.0047 38.0259C37.2722 35.4149 35.6454 29.1355 35.6454 29.1355C37.7757 32.3865 37.9452 35.0962 38.0388 38.4206C39.529 39.0303 41.1279 40.6191 41.2747 42.7115L40.6548 42.6406C40.3361 40.3155 34.0591 36.9001 33.4949 41.277C30.4842 41.7349 31.5797 46.5039 30.9725 49.5956C30.6942 51.0099 30.1781 52.1281 29.8037 53.3046ZM42.064 53.2008C39.572 54.1622 37.8895 56.2039 36.7333 57.4715C34.5069 59.9155 31.562 58.7441 31.2483 56.457C30.9169 54.013 32.1591 52.6797 32.6955 49.9447C33.1837 47.4476 32.6373 43.6045 33.7859 43.1947C34.5322 47.6298 39.0129 45.7652 40.035 44.5558C41.6972 44.5558 41.8363 45.1175 42.2083 46.6734C42.441 47.6475 42.7623 48.4672 43.6706 49.4311C44.7281 50.562 44.4043 52.2976 42.064 53.2008ZM21.824 20.2957C20.177 20.2957 18.9449 19.2002 17.943 18.3501C17.4294 17.9175 18.0695 17.118 18.5831 17.5531C19.5622 18.383 20.5489 19.2609 21.824 19.2609C23.3597 19.2609 24.7133 17.9478 26.5476 17.2242C27.1725 16.9788 27.5292 17.9453 26.9093 18.1907C25.1282 18.8915 23.6988 20.2957 21.824 20.2957Z" fill="white"/>
</svg>
