<?xml version="1.0" encoding="UTF-8" standalone="no"?><svg xmlns="http://www.w3.org/2000/svg" xmlns:xlink="http://www.w3.org/1999/xlink" contentScriptType="application/ecmascript" contentStyleType="text/css" height="508px" preserveAspectRatio="none" style="width:959px;height:508px;background:#FFFFFF;" version="1.1" viewBox="0 0 959 508" width="959px" zoomAndPan="magnify"><defs><filter height="300%" id="fd85qtfiw03s0" width="300%" x="-1" y="-1"><feGaussianBlur result="blurOut" stdDeviation="2.0"/><feColorMatrix in="blurOut" result="blurOut2" type="matrix" values="0 0 0 0 0 0 0 0 0 0 0 0 0 0 0 0 0 0 .4 0"/><feOffset dx="4.0" dy="4.0" in="blurOut2" result="blurOut3"/><feBlend in="SourceGraphic" in2="blurOut3" mode="normal"/></filter></defs><g><!--MD5=[4a0fbdba679322a966289f1de8a1764d]
cluster StackQL Provider Registry--><polygon fill="#FFFFFF" filter="url(#fd85qtfiw03s0)" points="317.6164,11.3767,507.6164,11.3767,514.6164,34.9861,517.6164,34.9861,517.6164,118.3767,317.6164,118.3767,317.6164,11.3767" style="stroke:#000000;stroke-width:1.5;"/><line style="stroke:#000000;stroke-width:1.5;" x1="317.6164" x2="514.6164" y1="34.9861" y2="34.9861"/><text fill="#000000" font-family="sans-serif" font-size="14" font-weight="bold" lengthAdjust="spacing" textLength="184" x="321.6164" y="27.9099">StackQL Provider Registry</text><!--MD5=[b225eedcfb2337a4b9b2667e21197ea8]
cluster Cloud Provider--><path d="M26.6492,21.5565 C33.254,12.2212 41.1766,11.8741 47.8846,21.4406 C51.6322,12.0223 58.6803,11.9532 64.9108,18.8493 C69.9657,8.6689 78.9661,7.5619 85.3897,17.4529 C91.1126,9.1345 99.1084,6 105.5012,16.7462 C110.1771,8.6095 117.6972,9.6022 122.5813,16.5097 C128.4338,9.1275 137.0342,9.7194 140.9091,18.7219 C146.6912,8.4774 155.4987,10.0266 161.1006,18.9121 C172.9586,9.2497 180.7133,13.1974 185.6164,26.3767 C187.6507,26 188.9634,26.5837 188.5693,28.971 C195.366,34.345 194.9808,39.2615 187.8469,43.9642 C194.7415,48.0654 196.4897,54.0347 189.3116,59.4656 C197.34,64.3142 196.766,69.7789 189.661,74.9686 C197.0108,77.5031 198.4237,83.3522 192.5811,88.6935 C199.7811,92.7923 201.1677,100.3121 193.4079,105.162 C201.603,109.0657 201.815,116.8002 195.2435,122.2867 C201.7145,125.7758 202.3099,130.4859 197.0625,135.5787 C204.7051,139.9874 203.3468,147.3377 195.7695,150.4204 C202.1288,157.6585 200.0753,163.3524 191.8055,167.1175 C199.6202,171.6518 199.5191,178.5017 191.79,183.0208 C198.5577,187.3424 198.9521,193.4491 191.0843,197.0336 C199.8189,204.4329 197.9137,210.9134 188.046,215.2017 C195.3382,219.1089 196.8899,225.6196 189.2831,230.715 C195.6091,241.9718 191.3737,249.4727 178.6164,250.3767 C179.4872,249.9564 180.0747,250.2237 180.1174,251.2411 C174.6987,259.8803 165.3284,260.9441 159.8136,251.3481 C153.7393,260.3149 148.0022,260.9821 142.0093,251.2705 C138.3839,261.8055 130.8748,261.1631 124.3424,254.2066 C117.7171,263.2355 108.7597,264.392 102.7254,253.5633 C97.9464,261.8374 89.5985,260.2791 85.8381,252.4922 C80.0915,262.0095 73.763,261.1669 67.309,253.2437 C60.4407,264.7091 52.2648,262.1814 46.067,252.5681 C34.1348,260.8141 23.3109,258.8369 19.6164,243.3767 C20.2926,242.7215 20.8503,242.7932 21.3097,243.6238 C14.0133,239.9847 14.27,235.1863 20.1936,230.429 C11.7908,224.9642 11.5326,218.3455 19.9488,212.6492 C12.7788,209.6899 12.573,204.236 17.975,199.4034 C10.3241,195.7939 10.4277,187.7088 16.9099,183.1719 C9.8408,179.4096 8.2603,175.0599 14.3529,168.9339 C6,162.4683 7.1168,156.2139 15.4606,150.7664 C7.2844,147.2633 8.0504,141.3163 13.4475,135.9668 C6.5039,131.1505 7.1143,125.4148 14.566,121.7293 C6.8908,116.013 6.0598,109.365 15.1418,104.1993 C9.2946,99.085 10.2373,91.593 17.5487,88.4956 C9.9091,84.1607 9.5472,79.4784 16.4376,74.0277 C9.8056,67.046 12.0448,61.9807 20.3407,58.8336 C12.9395,54.1843 11.6731,47.6805 19.9873,42.6872 C11.1838,32.7075 12.3134,22.7853 26.6164,19.3767 C27.6132,20.091 27.7665,20.8104 26.6492,21.5565 " fill="#FFFFFF" filter="url(#fd85qtfiw03s0)" style="stroke:#000000;stroke-width:1.5;"/><text fill="#000000" font-family="sans-serif" font-size="14" font-weight="bold" lengthAdjust="spacing" textLength="106" x="49.6164" y="38.9099">Cloud Provider</text><!--MD5=[63f3ff338904a76645872baaf4207d60]
cluster StackQL Application--><polygon fill="#FFFFFF" filter="url(#fd85qtfiw03s0)" points="217.6164,151.3767,362.6164,151.3767,369.6164,174.9861,818.6164,174.9861,818.6164,501.3767,217.6164,501.3767,217.6164,151.3767" style="stroke:#000000;stroke-width:1.5;"/><line style="stroke:#000000;stroke-width:1.5;" x1="217.6164" x2="369.6164" y1="174.9861" y2="174.9861"/><text fill="#000000" font-family="sans-serif" font-size="14" font-weight="bold" lengthAdjust="spacing" textLength="139" x="221.6164" y="167.9099">StackQL Application</text><!--MD5=[0148128faf00d4bfff713b3c2706f5e7]
entity providerdoc--><rect fill="#FFFFFF" filter="url(#fd85qtfiw03s0)" height="55.2188" style="stroke:#A80036;stroke-width:1.5;" width="168" x="333.6164" y="47.3767"/><rect fill="#FFFFFF" height="5" style="stroke:#A80036;stroke-width:1.5;" width="10" x="328.6164" y="52.3767"/><rect fill="#FFFFFF" height="5" style="stroke:#A80036;stroke-width:1.5;" width="10" x="328.6164" y="92.5955"/><text fill="#000000" font-family="sans-serif" font-size="14" font-style="italic" lengthAdjust="spacing" textLength="80" x="377.6164" y="71.9099">«Document»</text><text fill="#000000" font-family="sans-serif" font-size="14" lengthAdjust="spacing" textLength="148" x="343.6164" y="89.5193">Provider Interface Spec</text><!--MD5=[48bec2727c60d9b6f7ed14a669c09e51]
entity discdoc--><rect fill="#FFFFFF" filter="url(#fd85qtfiw03s0)" height="55.2188" style="stroke:#A80036;stroke-width:1.5;" width="150" x="27.6164" y="47.3767"/><rect fill="#FFFFFF" height="5" style="stroke:#A80036;stroke-width:1.5;" width="10" x="22.6164" y="52.3767"/><rect fill="#FFFFFF" height="5" style="stroke:#A80036;stroke-width:1.5;" width="10" x="22.6164" y="92.5955"/><text fill="#000000" font-family="sans-serif" font-size="14" font-style="italic" lengthAdjust="spacing" textLength="74" x="65.6164" y="71.9099">«API Spec»</text><text fill="#000000" font-family="sans-serif" font-size="14" lengthAdjust="spacing" textLength="130" x="37.6164" y="89.5193">Discovery Document</text><!--MD5=[e2307af040e3f87d22824e7603ca28ec]
entity api--><rect fill="#FFFFFF" filter="url(#fd85qtfiw03s0)" height="55.2188" style="stroke:#A80036;stroke-width:1.5;" width="106" x="57.6164" y="187.3767"/><rect fill="#FFFFFF" height="5" style="stroke:#A80036;stroke-width:1.5;" width="10" x="52.6164" y="192.3767"/><rect fill="#FFFFFF" height="5" style="stroke:#A80036;stroke-width:1.5;" width="10" x="52.6164" y="232.5955"/><text fill="#000000" font-family="sans-serif" font-size="14" font-style="italic" lengthAdjust="spacing" textLength="38" x="91.6164" y="211.9099">«API»</text><text fill="#000000" font-family="sans-serif" font-size="14" lengthAdjust="spacing" textLength="86" x="67.6164" y="229.5193">Resource API</text><!--MD5=[983ce588ebbb2eb03504f6369bc66e10]
entity providerint--><rect fill="#FEFECE" filter="url(#fd85qtfiw03s0)" height="55.2188" style="stroke:#A80036;stroke-width:1.5;" width="128" x="392.6164" y="187.3767"/><rect fill="#FEFECE" height="5" style="stroke:#A80036;stroke-width:1.5;" width="10" x="387.6164" y="192.3767"/><rect fill="#FEFECE" height="5" style="stroke:#A80036;stroke-width:1.5;" width="10" x="387.6164" y="232.5955"/><text fill="#000000" font-family="sans-serif" font-size="14" font-style="italic" lengthAdjust="spacing" textLength="86" x="413.6164" y="211.9099">«component»</text><text fill="#000000" font-family="sans-serif" font-size="14" lengthAdjust="spacing" textLength="108" x="402.6164" y="229.5193">ProviderInterface</text><!--MD5=[893418e03dea80777231e2b7df261f35]
entity localexec--><rect fill="#FEFECE" filter="url(#fd85qtfiw03s0)" height="55.2188" style="stroke:#A80036;stroke-width:1.5;" width="109" x="243.1164" y="430.3767"/><rect fill="#FEFECE" height="5" style="stroke:#A80036;stroke-width:1.5;" width="10" x="238.1164" y="435.3767"/><rect fill="#FEFECE" height="5" style="stroke:#A80036;stroke-width:1.5;" width="10" x="238.1164" y="475.5955"/><text fill="#000000" font-family="sans-serif" font-size="14" font-style="italic" lengthAdjust="spacing" textLength="86" x="254.6164" y="454.9099">«component»</text><text fill="#000000" font-family="sans-serif" font-size="14" lengthAdjust="spacing" textLength="89" x="253.1164" y="472.5193">LocalExecutor</text><!--MD5=[2c63adfedc3fe0c93325f026c33b6d1e]
entity remoteexec--><rect fill="#FEFECE" filter="url(#fd85qtfiw03s0)" height="55.2188" style="stroke:#A80036;stroke-width:1.5;" width="124" x="233.6164" y="187.3767"/><rect fill="#FEFECE" height="5" style="stroke:#A80036;stroke-width:1.5;" width="10" x="228.6164" y="192.3767"/><rect fill="#FEFECE" height="5" style="stroke:#A80036;stroke-width:1.5;" width="10" x="228.6164" y="232.5955"/><text fill="#000000" font-family="sans-serif" font-size="14" font-style="italic" lengthAdjust="spacing" textLength="86" x="252.6164" y="211.9099">«component»</text><text fill="#000000" font-family="sans-serif" font-size="14" lengthAdjust="spacing" textLength="104" x="243.6164" y="229.5193">RemoteExecutor</text><!--MD5=[75390d3fefe5b03c70cb446d957a6395]
entity planner--><rect fill="#FEFECE" filter="url(#fd85qtfiw03s0)" height="55.2188" style="stroke:#A80036;stroke-width:1.5;" width="108" x="390.6164" y="309.8767"/><rect fill="#FEFECE" height="5" style="stroke:#A80036;stroke-width:1.5;" width="10" x="385.6164" y="314.8767"/><rect fill="#FEFECE" height="5" style="stroke:#A80036;stroke-width:1.5;" width="10" x="385.6164" y="355.0955"/><text fill="#000000" font-family="sans-serif" font-size="14" font-style="italic" lengthAdjust="spacing" textLength="86" x="401.6164" y="334.4099">«component»</text><text fill="#000000" font-family="sans-serif" font-size="14" lengthAdjust="spacing" textLength="88" x="400.6164" y="352.0193">QueryPlanner</text><!--MD5=[b3c633cd6cd267e80b8ca5565fbac860]
entity parser--><rect fill="#FEFECE" filter="url(#fd85qtfiw03s0)" height="55.2188" style="stroke:#A80036;stroke-width:1.5;" width="106" x="555.6164" y="187.3767"/><rect fill="#FEFECE" height="5" style="stroke:#A80036;stroke-width:1.5;" width="10" x="550.6164" y="192.3767"/><rect fill="#FEFECE" height="5" style="stroke:#A80036;stroke-width:1.5;" width="10" x="550.6164" y="232.5955"/><text fill="#000000" font-family="sans-serif" font-size="14" font-style="italic" lengthAdjust="spacing" textLength="86" x="565.6164" y="211.9099">«component»</text><text fill="#000000" font-family="sans-serif" font-size="14" lengthAdjust="spacing" textLength="81" x="568.1164" y="229.5193">QueryParser</text><!--MD5=[839529e8711a56e2bc1927757a72830a]
entity preprocessor--><rect fill="#FEFECE" filter="url(#fd85qtfiw03s0)" height="55.2188" style="stroke:#A80036;stroke-width:1.5;" width="145" x="536.1164" y="309.8767"/><rect fill="#FEFECE" height="5" style="stroke:#A80036;stroke-width:1.5;" width="10" x="531.1164" y="314.8767"/><rect fill="#FEFECE" height="5" style="stroke:#A80036;stroke-width:1.5;" width="10" x="531.1164" y="355.0955"/><text fill="#000000" font-family="sans-serif" font-size="14" font-style="italic" lengthAdjust="spacing" textLength="86" x="565.6164" y="334.4099">«component»</text><text fill="#000000" font-family="sans-serif" font-size="14" lengthAdjust="spacing" textLength="125" x="546.1164" y="352.0193">QueryPreProcessor</text><!--MD5=[20e8a0d1c10cbe4476c06f9d600054d8]
entity driver--><rect fill="#FEFECE" filter="url(#fd85qtfiw03s0)" height="55.2188" style="stroke:#A80036;stroke-width:1.5;" width="106" x="696.6164" y="187.3767"/><rect fill="#FEFECE" height="5" style="stroke:#A80036;stroke-width:1.5;" width="10" x="691.6164" y="192.3767"/><rect fill="#FEFECE" height="5" style="stroke:#A80036;stroke-width:1.5;" width="10" x="691.6164" y="232.5955"/><text fill="#000000" font-family="sans-serif" font-size="14" font-style="italic" lengthAdjust="spacing" textLength="86" x="706.6164" y="211.9099">«component»</text><text fill="#000000" font-family="sans-serif" font-size="14" lengthAdjust="spacing" textLength="38" x="730.6164" y="229.5193">Driver</text><!--MD5=[fe1dc0ffe2c7033f1a075e99cc66abc2]
entity localdb--><path d="M241.1164,315.3767 C241.1164,305.3767 297.6164,305.3767 297.6164,305.3767 C297.6164,305.3767 354.1164,305.3767 354.1164,315.3767 L354.1164,359.5955 C354.1164,369.5955 297.6164,369.5955 297.6164,369.5955 C297.6164,369.5955 241.1164,369.5955 241.1164,359.5955 L241.1164,315.3767 " fill="#FFFFFF" filter="url(#fd85qtfiw03s0)" style="stroke:#000000;stroke-width:1.5;"/><path d="M241.1164,315.3767 C241.1164,325.3767 297.6164,325.3767 297.6164,325.3767 C297.6164,325.3767 354.1164,325.3767 354.1164,315.3767 " fill="none" style="stroke:#000000;stroke-width:1.5;"/><text fill="#000000" font-family="sans-serif" font-size="14" font-style="italic" lengthAdjust="spacing" textLength="48" x="273.6164" y="343.9099">«store»</text><text fill="#000000" font-family="sans-serif" font-size="14" lengthAdjust="spacing" textLength="93" x="251.1164" y="361.5193">Local Backend</text><!--MD5=[1cc63f1686552ec4d4eb6d9ab6ab4c68]
entity userint--><ellipse cx="937.6164" cy="214.8767" fill="#FEFECE" filter="url(#fd85qtfiw03s0)" rx="8" ry="8" style="stroke:#A80036;stroke-width:1.5;"/><!--MD5=[df62aceab7e001e05af2b62b338fdb90]
link discdoc to api--><!--MD5=[15f4d04e7342daf6c091e216b5156fc8]
link api to remoteexec--><!--MD5=[8d69f59442b807a585c814b4cdf32602]
link remoteexec to api--><path d="M233.5364,196.4867 C210.2664,193.0667 186.9964,193.5767 163.7364,197.9867 " fill="none" id="remoteexec-api" style="stroke:#A80036;stroke-width:1.0;"/><path d="M205.8548,201.2172 A10,10 0 0 0 205.5494 187.0784" style="stroke:#A80036;stroke-width:1.5;fill:none;"/><ellipse cx="198.6327" cy="194.3005" fill="#FFFFFF" rx="6" ry="6" style="stroke:#A80036;stroke-width:1.5;"/><!--MD5=[900dfc1225cf701b5d573b2bc299754e]
link remoteexec to providerint--><!--MD5=[ef5a97caf01c6453646b58ca81288e0f]
link providerint to parser--><!--MD5=[152d3ffdf1b2f86a7c20dfe1ddb653d0]
link parser to driver--><!--MD5=[17f1d2a182d8b2e04fd69444566f0c9f]
link remoteexec to localdb--><!--MD5=[17f1d2a182d8b2e04fd69444566f0c9f]
link remoteexec to localdb--><path d="M307.4964,242.6167 C310.1064,259.4767 310.8264,281.4667 309.5264,299.9167 " fill="none" id="remoteexec-to-localdb" style="stroke:#A80036;stroke-width:1.0;stroke-dasharray:1.0,3.0;"/><polygon fill="#A80036" points="309.1064,305.0167,313.838,296.3789,309.5205,300.0339,305.8654,295.7164,309.1064,305.0167" style="stroke:#A80036;stroke-width:1.0;"/><!--MD5=[34fbc3e972d48cca93625357a242b83d]
link localdb to localexec--><!--MD5=[5efde776a1298f67a6502591d876e4b4]
reverse link localdb to localexec--><path d="M310.1564,374.4967 C311.7264,392.5067 311.3664,413.8967 309.0864,430.3667 " fill="none" id="localdb-backto-localexec" style="stroke:#A80036;stroke-width:1.0;stroke-dasharray:1.0,3.0;"/><polygon fill="#A80036" points="309.6664,369.5067,306.5605,378.853,310.1526,374.483,314.5226,378.0751,309.6664,369.5067" style="stroke:#A80036;stroke-width:1.0;"/><!--MD5=[097a2214fb3c895f17eb37e28226c10a]
link localdb to planner--><!--MD5=[df010c34efd26d75433776961b6ce148]
link planner to preprocessor--><!--MD5=[7425ceddce89061b46465ad782b66740]
link driver to userint--><!--MD5=[bcfd055d738e3415ff62f1da20cb9d54]
link userint to driver--><path d="M928.3364,214.8767 C905.8064,214.8767 846.8164,214.8767 802.7364,214.8767 " fill="none" id="userint-driver" style="stroke:#A80036;stroke-width:1.0;"/><text fill="#000000" font-family="sans-serif" font-size="13" lengthAdjust="spacing" textLength="85" x="825.1164" y="208.3718">query interface</text><!--MD5=[84605f2d5f552da4a8fe474bdd44d182]
link providerdoc to providerint--><path d="M425.1364,102.4867 C432.0464,126.9167 442.2164,162.9367 449.1164,187.3467 " fill="none" id="providerdoc-providerint" style="stroke:#A80036;stroke-width:1.0;"/><path d="M442.0125,136.1971 A10,10 0 0 0 428.403 140.0419" style="stroke:#A80036;stroke-width:1.5;fill:none;"/><ellipse cx="437.1302" cy="144.9242" fill="#FFFFFF" rx="6" ry="6" style="stroke:#A80036;stroke-width:1.5;"/><!--MD5=[aa0b161f4dddde9444918c245408c718]
link driver to preprocessor--><path d="M718.3264,242.6167 C696.2364,261.4967 666.6164,286.8067 643.7264,306.3767 " fill="none" id="driver-to-preprocessor" style="stroke:#A80036;stroke-width:1.0;stroke-dasharray:1.0,3.0;"/><polygon fill="#A80036" points="639.8164,309.7067,649.259,306.9071,643.6198,306.461,644.0659,300.8218,639.8164,309.7067" style="stroke:#A80036;stroke-width:1.0;"/><!--MD5=[99ebd50184349ebb0bda7b0217797f10]
reverse link parser to preprocessor--><path d="M608.6164,247.9167 C608.6164,267.2067 608.6164,291.4767 608.6164,309.7067 " fill="none" id="parser-backto-preprocessor" style="stroke:#A80036;stroke-width:1.0;stroke-dasharray:1.0,3.0;"/><polygon fill="#A80036" points="608.6164,242.6167,604.6164,251.6167,608.6164,247.6167,612.6164,251.6167,608.6164,242.6167" style="stroke:#A80036;stroke-width:1.0;"/><!--MD5=[131747bc2debbc7fb6fb7cb1989d2803]
link parser to planner--><path d="M572.2164,242.6167 C546.4264,261.5767 511.7964,287.0167 485.1264,306.6167 " fill="none" id="parser-to-planner" style="stroke:#A80036;stroke-width:1.0;stroke-dasharray:1.0,3.0;"/><polygon fill="#A80036" points="480.9164,309.7067,490.5386,307.6056,484.9471,306.748,485.8047,301.1566,480.9164,309.7067" style="stroke:#A80036;stroke-width:1.0;"/><!--MD5=[40e083d8abe74f6b1436fdf63601758c]
link providerint to planner--><path d="M453.9564,242.6167 C452.1364,260.8767 449.7164,285.1367 447.7964,304.4167 " fill="none" id="providerint-to-planner" style="stroke:#A80036;stroke-width:1.0;stroke-dasharray:1.0,3.0;"/><polygon fill="#A80036" points="447.2764,309.7067,452.157,301.1522,447.7768,304.7318,444.1971,300.3516,447.2764,309.7067" style="stroke:#A80036;stroke-width:1.0;"/><!--MD5=[7fd38ba9e4e8e54be6fa2759a1beb4cd]
reverse link remoteexec to planner--><path d="M332.8164,245.9567 C357.0264,265.5367 388.3164,290.8467 411.6364,309.7067 " fill="none" id="remoteexec-backto-planner" style="stroke:#A80036;stroke-width:1.0;stroke-dasharray:1.0,3.0;"/><polygon fill="#A80036" points="328.6864,242.6167,333.1685,251.3866,332.574,245.7611,338.1995,245.1665,328.6864,242.6167" style="stroke:#A80036;stroke-width:1.0;"/><!--MD5=[d0e4c46ad0e4cb75f476e29e5caf0c1b]
link discdoc to providerdoc--><path d="M177.6664,74.8767 C222.8764,74.8767 280.7064,74.8767 328.2764,74.8767 " fill="none" id="discdoc-to-providerdoc" style="stroke:#A80036;stroke-width:1.0;stroke-dasharray:7.0,7.0;"/><polygon fill="#A80036" points="333.4264,74.8767,324.4264,70.8767,328.4264,74.8767,324.4264,78.8767,333.4264,74.8767" style="stroke:#A80036;stroke-width:1.0;"/><text fill="#000000" font-family="sans-serif" font-size="13" lengthAdjust="spacing" textLength="81" x="215.1164" y="68.3718">used to define</text><!--MD5=[da59548aafb61215d02e709a067bd562]
link planner to localexec--><path d="M411.6264,364.9667 C388.7364,383.4167 358.2364,408.0067 334.5364,427.1167 " fill="none" id="planner-to-localexec" style="stroke:#A80036;stroke-width:1.0;stroke-dasharray:1.0,3.0;"/><polygon fill="#A80036" points="330.4964,430.3767,340.0141,427.844,334.3896,427.2393,334.9943,421.6149,330.4964,430.3767" style="stroke:#A80036;stroke-width:1.0;"/><!--MD5=[e20c9addac1d966a47addca6206835b2]
@startuml

skinparam componentStyle uml1

package "StackQL Provider Registry" {
    component "Provider Interface Spec" <<Document>> as providerdoc {
    }
}


cloud "Cloud Provider" {
    component "Discovery Document" <<API Spec>> as discdoc {
    }
    component "Resource API" <<API>> as api {
    }
}

package "StackQL Application" {
    database "Local Backend" <<store>> as localdb { 
    }
    [ProviderInterface] <<component>> as providerint
    [LocalExecutor] <<component>> as localexec
    [RemoteExecutor] <<component>> as remoteexec
    [QueryPlanner] <<component>> as planner
    [QueryParser] <<component>> as parser
    [QueryPreProcessor] <<component>> as preprocessor
    [Driver] <<component>> as driver
}

interface " " as userint

discdoc -[hidden]D- api
api -[hidden]R- remoteexec
remoteexec -[hidden]R- providerint
providerint -[hidden]R- parser
parser -[hidden]R- driver
remoteexec -[hidden]D- localdb
localdb -[hidden]D- localexec
localdb -[hidden]R- planner
planner -[hidden]R- preprocessor
driver -[hidden]R- userint

userint -right- driver : " query interface"
providerdoc -(0- providerint
driver ~down~> preprocessor
preprocessor ~up~> parser
parser ~down~> planner
providerint ~down~> planner
planner ~up~> remoteexec
remoteexec -(0- api
discdoc .right.> providerdoc : "used to define"
remoteexec ~down~> localdb
planner ~down~> localexec
localexec ~up~> localdb

@enduml

PlantUML version 1.2022.0(Wed Jan 12 03:16:42 AEDT 2022)
(GPL source distribution)
Java Runtime: Java(TM) SE Runtime Environment
JVM: Java HotSpot(TM) 64-Bit Server VM
Default Encoding: Cp1252
Language: en
Country: AU
--></g></svg>